<svg width="13" height="13" viewBox="0 0 13 13" fill="none" xmlns="http://www.w3.org/2000/svg">
<path d="M1.0835 4.87516C1.0835 3.85358 1.0835 3.34333 1.40091 3.02591C1.71833 2.7085 2.22858 2.7085 3.25016 2.7085H9.75016C10.7717 2.7085 11.282 2.7085 11.5994 3.02591C11.9168 3.34333 11.9168 3.85358 11.9168 4.87516C11.9168 5.13029 11.9168 5.25812 11.8377 5.33775C11.7581 5.41683 11.6297 5.41683 11.3752 5.41683H1.62516C1.37004 5.41683 1.2422 5.41683 1.16258 5.33775C1.0835 5.25812 1.0835 5.12975 1.0835 4.87516ZM1.0835 9.75016C1.0835 10.7717 1.0835 11.282 1.40091 11.5994C1.71833 11.9168 2.22858 11.9168 3.25016 11.9168H9.75016C10.7717 11.9168 11.282 11.9168 11.5994 11.5994C11.9168 11.282 11.9168 10.7717 11.9168 9.75016V7.04183C11.9168 6.7867 11.9168 6.65887 11.8377 6.57925C11.7581 6.50016 11.6297 6.50016 11.3752 6.50016H1.62516C1.37004 6.50016 1.2422 6.50016 1.16258 6.57925C1.0835 6.65887 1.0835 6.78725 1.0835 7.04183V9.75016Z" fill="currentColor"/>
<path d="M3.79199 1.625V3.25M9.20866 1.625V3.25" stroke="currentColor" stroke-width="2" stroke-linecap="round"/>
</svg>
