<svg width="13" height="13" viewBox="0 0 13 13" fill="none" xmlns="http://www.w3.org/2000/svg">
<path d="M11.7289 12.6807C10.2751 12.6807 8.85808 12.3434 7.47778 11.6689C6.09748 10.9944 4.87472 10.1031 3.80952 8.99513C2.74431 7.88715 1.88782 6.61477 1.24004 5.17797C0.592266 3.74116 0.268151 2.2666 0.2677 0.754278C0.2677 0.543191 0.335318 0.367285 0.470553 0.22656C0.605789 0.0858348 0.774833 0.0154724 0.977687 0.0154724H3.71621C3.87398 0.0154724 4.01485 0.0682442 4.13882 0.173788C4.26278 0.279332 4.33603 0.414193 4.35857 0.578372L4.79809 3.04106C4.82063 3.20524 4.8177 3.35487 4.7893 3.48997C4.7609 3.62507 4.69621 3.74515 4.59524 3.85023L2.97241 5.57411C3.44573 6.41846 4.03739 7.21003 4.74738 7.94884C5.45736 8.68764 6.2406 9.32677 7.09709 9.86621L8.68611 8.2127C8.78754 8.10715 8.92007 8.02811 9.0837 7.97558C9.24734 7.92304 9.40782 7.90826 9.56514 7.93125L11.898 8.42379C12.0557 8.45897 12.1853 8.53824 12.2868 8.66161C12.3882 8.78498 12.4389 8.92852 12.4389 9.09223V11.9419C12.4389 12.153 12.3713 12.3289 12.236 12.4696C12.1008 12.6104 11.9318 12.6807 11.7289 12.6807Z" fill="currentColor"/>
</svg>
