<svg width="20" height="20" viewBox="0 0 20 20" fill="none" xmlns="http://www.w3.org/2000/svg">
<path d="M11.2002 1.59961V4.79961C11.2002 5.22396 11.3688 5.63092 11.6688 5.93098C11.9689 6.23104 12.3758 6.39961 12.8002 6.39961H16.0002M12.0002 1.59961H4.8002C4.37585 1.59961 3.96888 1.76818 3.66882 2.06824C3.36877 2.3683 3.2002 2.77526 3.2002 3.19961V15.9996C3.2002 16.424 3.36877 16.8309 3.66882 17.131C3.96888 17.431 4.37585 17.5996 4.8002 17.5996H14.4002C14.8245 17.5996 15.2315 17.431 15.5316 17.131C15.8316 16.8309 16.0002 16.424 16.0002 15.9996V5.59961L12.0002 1.59961Z" stroke="black" stroke-width="1.6" stroke-linecap="round" stroke-linejoin="round"/>
</svg>
