<svg width="15" height="15" viewBox="0 0 15 15" fill="none" xmlns="http://www.w3.org/2000/svg">
<path d="M2.00039 13.1999H3.14039L10.9604 5.3799L9.82039 4.2399L2.00039 12.0599V13.1999ZM1.20039 14.7999C0.973724 14.7999 0.783857 14.7231 0.630791 14.5695C0.477724 14.4159 0.400924 14.226 0.400391 13.9999V12.0599C0.400391 11.8466 0.440391 11.6431 0.520391 11.4495C0.600391 11.2559 0.713724 11.086 0.860391 10.9399L10.9604 0.859902C11.1204 0.713236 11.2972 0.599902 11.4908 0.519902C11.6844 0.439902 11.8876 0.399902 12.1004 0.399902C12.3132 0.399902 12.5199 0.439902 12.7204 0.519902C12.9209 0.599902 13.0943 0.719902 13.2404 0.879902L14.3404 1.9999C14.5004 2.14657 14.6169 2.3199 14.69 2.5199C14.7631 2.7199 14.7999 2.9199 14.8004 3.1199C14.8004 3.33324 14.7636 3.5367 14.69 3.7303C14.6164 3.9239 14.4999 4.10044 14.3404 4.2599L4.26039 14.3399C4.11372 14.4866 3.94359 14.5999 3.74999 14.6799C3.55639 14.7599 3.35319 14.7999 3.14039 14.7999H1.20039ZM10.3804 4.8199L9.82039 4.2399L10.9604 5.3799L10.3804 4.8199Z" fill="currentColor"/>
</svg>
