<svg width="13" height="13" viewBox="0 0 13 13" fill="none" xmlns="http://www.w3.org/2000/svg">
<path d="M6.3504 6.08599C5.99951 6.08599 5.663 5.94661 5.41489 5.6985C5.16678 5.45039 5.0274 5.11387 5.0274 4.76299C5.0274 4.41211 5.16678 4.0756 5.41489 3.82749C5.663 3.57938 5.99951 3.43999 6.3504 3.43999C6.70128 3.43999 7.03779 3.57938 7.2859 3.82749C7.53401 4.0756 7.6734 4.41211 7.6734 4.76299C7.6734 4.93673 7.63918 5.10877 7.57269 5.26928C7.5062 5.4298 7.40875 5.57564 7.2859 5.6985C7.16305 5.82135 7.0172 5.9188 6.85669 5.98529C6.69617 6.05177 6.52414 6.08599 6.3504 6.08599ZM6.3504 1.05859C5.36793 1.05859 4.4257 1.44888 3.73099 2.14359C3.03628 2.8383 2.646 3.78053 2.646 4.76299C2.646 7.54129 6.3504 11.6426 6.3504 11.6426C6.3504 11.6426 10.0548 7.54129 10.0548 4.76299C10.0548 3.78053 9.66451 2.8383 8.9698 2.14359C8.27509 1.44888 7.33286 1.05859 6.3504 1.05859Z" fill="currentColor"/>
</svg>
