<svg width="206" height="206" viewBox="0 0 206 206" fill="none" xmlns="http://www.w3.org/2000/svg">
<g filter="url(#filter0_d_86_72)">
<circle cx="101" cy="99" r="95" fill="white"/>
<path d="M99.1 49.95H81.1C75.55 49.95 65.5 50.4 58.15 56.25C55 58.65 49.15 64.8 49.15 76.95C49.15 81.9 50.2 90.6 59.05 96.6C45.1 100.05 40 112.2 40 121.8C40 131.4 44.8 139.2 50.2 143.4C58.15 149.7 67.3 150 74.2 150H99.1V49.95ZM88 60.45V93.9H79.6C73.75 93.9 59.95 92.7 59.95 77.25C59.95 60.75 76.15 60.45 79.3 60.45H88ZM88 103.8V139.5H75.25C68.8 139.5 62.5 139.05 57.7 135.3C53.8 132.45 51.1 127.5 51.1 121.5C51.1 113.55 55.75 108.9 59.65 106.8C63.4 104.7 68.65 103.8 76.6 103.8H88Z" fill="#4EB0CF"/>
<path d="M104 49.95V92.85L146.6 49.95H161.6L114.8 96.6L163.1 150H147.8L106.85 104.1L104 106.95V150H92.9V49.95H104Z" fill="#4EB0CF"/>
</g>
<defs>
<filter id="filter0_d_86_72" x="0" y="0" width="206" height="206" filterUnits="userSpaceOnUse" color-interpolation-filters="sRGB">
<feFlood flood-opacity="0" result="BackgroundImageFix"/>
<feColorMatrix in="SourceAlpha" type="matrix" values="0 0 0 0 0 0 0 0 0 0 0 0 0 0 0 0 0 0 127 0" result="hardAlpha"/>
<feOffset dx="2" dy="4"/>
<feGaussianBlur stdDeviation="4"/>
<feComposite in2="hardAlpha" operator="out"/>
<feColorMatrix type="matrix" values="0 0 0 0 0 0 0 0 0 0 0 0 0 0 0 0 0 0 0.25 0"/>
<feBlend mode="normal" in2="BackgroundImageFix" result="effect1_dropShadow_86_72"/>
<feBlend mode="normal" in="SourceGraphic" in2="effect1_dropShadow_86_72" result="shape"/>
</filter>
</defs>
</svg>
