<svg width="18" height="22" viewBox="0 0 18 22" fill="none" xmlns="http://www.w3.org/2000/svg">
<path d="M9.00017 0C7.14366 0 5.36318 0.737498 4.05043 2.05025C2.73767 3.36301 2.00017 5.14348 2.00017 7V10.528C2.00032 10.6831 1.96437 10.8362 1.89517 10.975L0.178175 14.408C0.0943009 14.5757 0.0546966 14.7621 0.063123 14.9494C0.0715494 15.1368 0.127727 15.3188 0.22632 15.4783C0.324912 15.6379 0.462647 15.7695 0.626441 15.8608C0.790236 15.9521 0.974652 16 1.16217 16H16.8382C17.0257 16 17.2101 15.9521 17.3739 15.8608C17.5377 15.7695 17.6754 15.6379 17.774 15.4783C17.8726 15.3188 17.9288 15.1368 17.9372 14.9494C17.9457 14.7621 17.906 14.5757 17.8222 14.408L16.1062 10.975C16.0366 10.8362 16.0003 10.6832 16.0002 10.528V7C16.0002 5.14348 15.2627 3.36301 13.9499 2.05025C12.6372 0.737498 10.8567 0 9.00017 0ZM9.00017 19C8.37952 19.0003 7.77405 18.8081 7.26719 18.4499C6.76034 18.0917 6.37706 17.5852 6.17017 17H11.8302C11.6233 17.5852 11.24 18.0917 10.7332 18.4499C10.2263 18.8081 9.62083 19.0003 9.00017 19Z" fill="currentColor"/>
</svg>
