<svg width="39" height="40" viewBox="0 0 39 40" fill="none" xmlns="http://www.w3.org/2000/svg">
<path d="M32.5 16.9502C32.5 25.0638 23.4991 33.5138 20.4766 36.1236C20.1951 36.3353 19.8523 36.4498 19.5 36.4498C19.1477 36.4498 18.8049 36.3353 18.5234 36.1236C15.5009 33.5138 6.5 25.0638 6.5 16.9502C6.5 13.5024 7.86964 10.1958 10.3076 7.75781C12.7456 5.31983 16.0522 3.9502 19.5 3.9502C22.9478 3.9502 26.2544 5.31983 28.6924 7.75781C31.1304 10.1958 32.5 13.5024 32.5 16.9502Z" fill="#4EB0CF"/>
<path d="M19.5 21.8252C22.1924 21.8252 24.375 19.6426 24.375 16.9502C24.375 14.2578 22.1924 12.0752 19.5 12.0752C16.8076 12.0752 14.625 14.2578 14.625 16.9502C14.625 19.6426 16.8076 21.8252 19.5 21.8252Z" fill="#4EB0CF"/>
<path d="M32.5 16.9502C32.5 25.0638 23.4991 33.5138 20.4766 36.1236C20.1951 36.3353 19.8523 36.4498 19.5 36.4498C19.1477 36.4498 18.8049 36.3353 18.5234 36.1236C15.5009 33.5138 6.5 25.0638 6.5 16.9502C6.5 13.5024 7.86964 10.1958 10.3076 7.75781C12.7456 5.31983 16.0522 3.9502 19.5 3.9502C22.9478 3.9502 26.2544 5.31983 28.6924 7.75781C31.1304 10.1958 32.5 13.5024 32.5 16.9502Z" stroke="black" stroke-width="2" stroke-linecap="round" stroke-linejoin="round"/>
<path d="M19.5 21.8252C22.1924 21.8252 24.375 19.6426 24.375 16.9502C24.375 14.2578 22.1924 12.0752 19.5 12.0752C16.8076 12.0752 14.625 14.2578 14.625 16.9502C14.625 19.6426 16.8076 21.8252 19.5 21.8252Z" stroke="black" stroke-width="2" stroke-linecap="round" stroke-linejoin="round"/>
</svg>
