<svg width="12" height="12" viewBox="0 0 12 12" fill="none" xmlns="http://www.w3.org/2000/svg">
<path d="M10.0833 11.1043C10.238 11.1043 10.3864 11.0429 10.4958 10.9335C10.6052 10.8241 10.6666 10.6757 10.6666 10.521V9.79416C10.669 8.15733 8.34848 6.87516 5.99998 6.87516C3.65148 6.87516 1.33331 8.15733 1.33331 9.79416V10.521C1.33331 10.6757 1.39477 10.8241 1.50417 10.9335C1.61356 11.0429 1.76194 11.1043 1.91665 11.1043H10.0833ZM8.10231 2.99833C8.10231 3.27441 8.04794 3.54779 7.94228 3.80286C7.83663 4.05792 7.68177 4.28968 7.48655 4.4849C7.29133 4.68012 7.05958 4.83498 6.80451 4.94063C6.54944 5.04628 6.27606 5.10066 5.99998 5.10066C5.7239 5.10066 5.45052 5.04628 5.19545 4.94063C4.94038 4.83498 4.70863 4.68012 4.51341 4.4849C4.31819 4.28968 4.16333 4.05792 4.05768 3.80286C3.95202 3.54779 3.89765 3.27441 3.89765 2.99833C3.89765 2.44076 4.11914 1.90602 4.51341 1.51176C4.90767 1.11749 5.44241 0.895996 5.99998 0.895996C6.55755 0.895996 7.09229 1.11749 7.48655 1.51176C7.88082 1.90602 8.10231 2.44076 8.10231 2.99833Z" stroke="currentColor" stroke-width="0.875" stroke-linecap="round" stroke-linejoin="round"/>
</svg>
