<svg width="18" height="18" viewBox="0 0 18 18" fill="none" xmlns="http://www.w3.org/2000/svg">
<path d="M5 9C4.71667 9 4.47933 9.096 4.288 9.288C4.09667 9.48 4.00067 9.71733 4 10V13C4 13.2833 4.096 13.521 4.288 13.713C4.48 13.905 4.71733 14.0007 5 14C5.28267 13.9993 5.52033 13.9033 5.713 13.712C5.90567 13.5207 6.00133 13.2833 6 13V10C6 9.71667 5.904 9.47933 5.712 9.288C5.52 9.09667 5.28267 9.00067 5 9ZM13 4C12.7167 4 12.4793 4.096 12.288 4.288C12.0967 4.48 12.0007 4.71733 12 5V13C12 13.2833 12.096 13.521 12.288 13.713C12.48 13.905 12.7173 14.0007 13 14C13.2827 13.9993 13.5203 13.9033 13.713 13.712C13.9057 13.5207 14.0013 13.2833 14 13V5C14 4.71667 13.904 4.47933 13.712 4.288C13.52 4.09667 13.2827 4.00067 13 4ZM9 11C8.71667 11 8.47933 11.096 8.288 11.288C8.09667 11.48 8.00067 11.7173 8 12V13C8 13.2833 8.096 13.521 8.288 13.713C8.48 13.905 8.71733 14.0007 9 14C9.28267 13.9993 9.52033 13.9033 9.713 13.712C9.90567 13.5207 10.0013 13.2833 10 13V12C10 11.7167 9.904 11.4793 9.712 11.288C9.52 11.0967 9.28267 11.0007 9 11ZM2 18C1.45 18 0.979333 17.8043 0.588 17.413C0.196667 17.0217 0.000666667 16.5507 0 16V2C0 1.45 0.196 0.979333 0.588 0.588C0.98 0.196667 1.45067 0.000666667 2 0H16C16.55 0 17.021 0.196 17.413 0.588C17.805 0.98 18.0007 1.45067 18 2V16C18 16.55 17.8043 17.021 17.413 17.413C17.0217 17.805 16.5507 18.0007 16 18H2ZM9 9C9.28333 9 9.521 8.904 9.713 8.712C9.905 8.52 10.0007 8.28267 10 8C9.99933 7.71733 9.90333 7.48 9.712 7.288C9.52067 7.096 9.28333 7 9 7C8.71667 7 8.47933 7.096 8.288 7.288C8.09667 7.48 8.00067 7.71733 8 8C7.99933 8.28267 8.09533 8.52033 8.288 8.713C8.48067 8.90567 8.718 9.00133 9 9Z" fill="currentColor"/>
</svg>
