<svg width="20" height="20" viewBox="0 0 20 20" fill="none" xmlns="http://www.w3.org/2000/svg">
<path fill-rule="evenodd" clip-rule="evenodd" d="M9.99999 19.6004C15.3019 19.6004 19.6 15.3023 19.6 10.0004C19.6 4.69846 15.3019 0.400391 9.99999 0.400391C4.69806 0.400391 0.399994 4.69846 0.399994 10.0004C0.399994 15.3023 4.69806 19.6004 9.99999 19.6004ZM14.4485 8.44892C14.9172 7.98029 14.9172 7.22049 14.4485 6.75186C13.9799 6.28323 13.2201 6.28323 12.7515 6.75186L8.79999 10.7033L7.24852 9.15186C6.77989 8.68323 6.02009 8.68323 5.55147 9.15186C5.08284 9.62049 5.08284 10.3803 5.55147 10.8489L7.95147 13.2489C8.4201 13.7175 9.17989 13.7175 9.64852 13.2489L14.4485 8.44892Z" fill="currentColor"/>
</svg>
