<svg width="203" height="203" viewBox="0 0 203 203" fill="none" xmlns="http://www.w3.org/2000/svg">
<path d="M94.5107 6.83052C98.3965 3.033 104.604 3.033 108.489 6.83052L117.449 15.5867C120.049 18.127 123.821 19.057 127.304 18.0156L139.306 14.4262C144.512 12.8695 150.008 15.7541 151.684 20.9224L155.548 32.8395C156.669 36.2968 159.578 38.8736 163.145 39.5698L175.441 41.9695C180.774 43.0102 184.3 48.1185 183.382 53.4737L181.265 65.8216C180.651 69.4039 182.029 73.0372 184.864 75.3114L194.637 83.1505C198.875 86.5502 199.623 92.712 196.322 97.0272L188.709 106.977C186.501 109.864 186.033 113.721 187.486 117.053L192.496 128.535C194.669 133.515 192.468 139.319 187.539 141.605L176.175 146.878C172.878 148.408 170.67 151.606 170.409 155.231L169.509 167.726C169.119 173.146 164.473 177.262 159.046 176.996L146.533 176.383C142.903 176.206 139.462 178.011 137.546 181.1L130.942 191.746C128.078 196.363 122.051 197.848 117.37 195.091L106.575 188.734C103.443 186.889 99.5571 186.889 96.4253 188.734L85.6304 195.091C80.9486 197.848 74.922 196.363 72.0579 191.746L65.4539 181.1C63.538 178.011 60.0972 176.206 56.4671 176.383L43.9541 176.996C38.5273 177.262 33.8813 173.146 33.4909 167.726L32.5908 155.231C32.3297 151.606 30.1223 148.408 26.8253 146.878L15.461 141.605C10.5323 139.319 8.33123 133.515 10.504 128.535L15.514 117.053C16.9675 113.721 16.4991 109.864 14.2907 106.977L6.6783 97.0272C3.37685 92.712 4.12502 86.5502 8.36324 83.1505L18.1356 75.3114C20.9707 73.0372 22.3486 69.4039 21.7346 65.8216L19.6181 53.4737C18.7002 48.1185 22.2262 43.0102 27.5589 41.9695L39.8549 39.5698C43.4221 38.8736 46.3308 36.2968 47.4518 32.8395L51.3161 20.9224C52.9921 15.7541 58.4881 12.8695 63.6937 14.4262L75.6964 18.0156C79.1785 19.057 82.9515 18.127 85.5508 15.5867L94.5107 6.83052Z" fill="black"/>
<path d="M86.7503 102L96.917 112.167L117.25 91.8332M152.834 102C152.834 130.074 130.075 152.833 102 152.833C73.9259 152.833 51.167 130.074 51.167 102C51.167 73.9254 73.9259 51.1665 102 51.1665C130.075 51.1665 152.834 73.9254 152.834 102Z" stroke="#4EB0CF" stroke-width="8" stroke-linecap="round" stroke-linejoin="round"/>
</svg>
