<svg width="18" height="18" viewBox="0 0 18 18" fill="none" xmlns="http://www.w3.org/2000/svg">
<path fill-rule="evenodd" clip-rule="evenodd" d="M15.5776 9C15.5776 8.73075 15.4321 8.5545 15.1411 8.2005C14.0761 6.9075 11.7271 4.5 9.00011 4.5C6.27311 4.5 3.92411 6.9075 2.85911 8.2005C2.56811 8.5545 2.42261 8.73075 2.42261 9C2.42261 9.26925 2.56811 9.4455 2.85911 9.7995C3.92411 11.0925 6.27311 13.5 9.00011 13.5C11.7271 13.5 14.0761 11.0925 15.1411 9.7995C15.4321 9.4455 15.5776 9.26925 15.5776 9ZM9.00011 11.25C9.59684 11.25 10.1691 11.0129 10.5911 10.591C11.0131 10.169 11.2501 9.59674 11.2501 9C11.2501 8.40326 11.0131 7.83097 10.5911 7.40901C10.1691 6.98705 9.59684 6.75 9.00011 6.75C8.40337 6.75 7.83107 6.98705 7.40912 7.40901C6.98716 7.83097 6.75011 8.40326 6.75011 9C6.75011 9.59674 6.98716 10.169 7.40912 10.591C7.83107 11.0129 8.40337 11.25 9.00011 11.25Z" fill="black"/>
</svg>
